<?xml version="1.0" standalone="no"?>
<!DOCTYPE svg PUBLIC "-//W3C//DTD SVG 20010904//EN"
 "http://www.w3.org/TR/2001/REC-SVG-20010904/DTD/svg10.dtd">
<svg version="1.0" xmlns="http://www.w3.org/2000/svg"
 width="300.000000pt" height="236.000000pt" viewBox="0 0 300.000000 236.000000"
 preserveAspectRatio="xMidYMid meet">
<metadata>
Created by potrace 1.10, written by Peter Selinger 2001-2011
</metadata>
<g transform="translate(0.000000,236.000000) scale(0.100000,-0.100000)"
fill="#000000" stroke="none">
<path d="M206 2108 c-13 -59 -16 -77 -23 -144 -12 -104 -8 -416 6 -524 49
-369 176 -680 366 -898 283 -325 555 -259 767 185 48 100 50 106 39 146 -99
375 -119 425 -234 597 -61 91 -220 251 -302 305 -77 51 -229 126 -344 170
-164 63 -236 111 -261 170 -7 18 -8 18 -14 -7z m24 -257 c-16 -215 -27 -260
-28 -125 -2 109 13 298 25 317 15 24 16 -22 3 -192z m46 87 c-4 -51 -14 -156
-22 -233 -7 -77 -14 -207 -15 -290 -1 -121 -3 -142 -11 -110 -21 85 18 725 44
725 7 0 8 -30 4 -92z m43 -20 c-2 -68 -11 -98 -29 -98 -5 0 -6 28 -3 63 6 82
11 107 24 107 6 0 9 -28 8 -72z m104 24 c38 -18 75 -32 83 -32 12 0 14 -14 12
-72 -2 -59 -6 -72 -18 -69 -8 2 -39 12 -69 23 -30 10 -65 18 -78 18 -19 0 -23
5 -23 33 0 51 12 138 19 134 3 -1 37 -17 74 -35z m228 -103 c138 -66 211 -119
322 -231 131 -134 209 -253 267 -411 19 -52 100 -343 100 -359 0 -18 -94 -204
-133 -263 -53 -80 -130 -153 -196 -183 -74 -34 -184 -29 -254 12 -103 61 -207
168 -207 214 0 20 12 14 58 -27 58 -52 126 -87 203 -107 122 -31 201 -4 305
109 67 72 164 229 164 265 0 31 -35 167 -56 218 -95 232 -227 415 -384 533
-77 58 -214 132 -273 146 -26 7 -27 10 -27 72 0 36 3 63 8 61 4 -2 50 -24 103
-49z m-189 -84 c223 -68 337 -131 463 -259 155 -158 301 -434 320 -607 6 -52
4 -57 -44 -136 -98 -157 -197 -242 -288 -248 -57 -4 -156 23 -216 59 -112 65
-238 217 -306 368 -88 197 -136 432 -128 628 5 110 29 240 45 240 2 0 72 -20
154 -45z m-93 -833 c17 -34 29 -67 26 -72 -4 -6 -1 -10 5 -10 6 0 14 -10 19
-22 5 -13 32 -51 59 -84 36 -45 52 -73 56 -105 l7 -44 -22 35 c-12 19 -34 52
-48 74 -40 60 -108 192 -114 219 -1 6 -4 14 -7 17 -22 22 -40 75 -39 117 l1
48 12 -55 c7 -30 27 -83 45 -118z"/>
<path d="M2717 2097 c-22 -41 -86 -83 -202 -132 -304 -127 -391 -177 -518
-295 -101 -95 -195 -216 -255 -328 -56 -106 -124 -316 -159 -493 -3 -18 9 -54
39 -116 81 -164 147 -257 230 -321 151 -116 309 -95 477 64 197 185 353 505
410 839 6 33 13 74 16 90 17 100 25 344 16 467 -20 250 -26 277 -54 225z m15
-64 c0 -10 3 -31 5 -48 2 -16 6 -122 8 -235 3 -204 -8 -348 -29 -362 -8 -6 -8
-8 0 -8 7 0 9 -11 6 -25 -2 -14 -8 -25 -12 -25 -7 0 -7 25 5 145 11 115 -23
300 -61 336 -19 18 -23 18 -60 4 -21 -9 -47 -20 -56 -25 -17 -9 -18 -3 -18 74
l0 83 44 13 c24 6 68 29 97 50 62 44 68 46 71 23z m-253 -215 c1 -39 -13 -58
-23 -32 -9 22 -7 129 2 138 8 9 21 -51 21 -106z m-59 7 c0 -43 -4 -75 -10 -75
-6 0 -10 32 -10 75 0 43 4 75 10 75 6 0 10 -32 10 -75z m-42 -17 c-3 -61 -4
-62 -36 -70 -51 -13 -174 -81 -240 -131 -127 -98 -244 -248 -328 -422 -61
-125 -109 -290 -100 -340 10 -53 99 -190 171 -265 102 -105 158 -123 300 -95
35 7 152 64 167 82 16 20 26 15 23 -11 -6 -53 -50 -97 -149 -151 -55 -31 -72
-35 -133 -35 -108 0 -187 48 -296 181 -15 19 -55 89 -89 157 l-61 123 22 92
c13 51 26 103 31 117 4 14 18 59 30 100 21 69 106 254 130 283 6 7 32 41 59
77 80 107 227 238 321 286 30 16 57 31 60 34 8 8 100 48 113 49 4 1 7 -27 5
-61z m119 10 c-3 -7 -5 -2 -5 12 0 14 2 19 5 13 2 -7 2 -19 0 -25z m167 -76
c39 -139 29 -369 -25 -574 -95 -362 -287 -602 -527 -658 -97 -23 -171 8 -266
110 -66 72 -146 203 -146 241 0 93 89 318 180 456 141 214 306 343 535 416
112 36 208 65 221 66 6 1 19 -25 28 -57z m44 -453 c-3 -8 -7 -3 -11 10 -4 17
-3 21 5 13 5 -5 8 -16 6 -23z m-13 -61 c-4 -18 -11 -37 -17 -43 -6 -7 -8 -5
-4 5 2 8 7 27 10 43 4 15 9 27 12 27 3 0 3 -15 -1 -32z m-22 -90 c-3 -16 -9
-28 -14 -28 -4 0 -3 14 3 31 12 36 18 35 11 -3z m-38 -113 c-8 -22 -14 -32
-15 -23 0 17 21 70 26 65 2 -1 -3 -21 -11 -42z m-15 -49 c0 -3 -4 -8 -10 -11
-5 -3 -10 -1 -10 4 0 6 5 11 10 11 6 0 10 -2 10 -4z m-18 -38 c-7 -7 -12 -19
-12 -27 0 -9 -30 -70 -66 -136 -60 -110 -65 -116 -58 -75 3 26 16 56 29 70 13
14 37 54 54 89 30 63 48 91 59 91 3 0 1 -5 -6 -12z m-186 -324 c-10 -48 -29
-56 -21 -7 4 21 9 47 13 58 5 19 6 19 10 2 2 -11 1 -34 -2 -53z m-41 -39 c-3
-25 -11 -48 -17 -51 -11 -7 -3 90 9 110 11 18 15 -13 8 -59z"/>
</g>
</svg>
